@startuml
hide methods
'left to right direction
skinparam classAttributeIconSize 0


class Company{
-name
}

class Parameter{
-code
-shortName
-description
}

class ParameterCategory{
-name
-code
}

class Employee{
-name
-address
-phoneNumber
-email
-employeeId
-organizationRole
-socCode
}

Company "1"--"*" Parameter : capable of analyzing >
Company "1"--"*" ParameterCategory : adopts >
Company "1"---"1..*" Employee : employ >
Parameter "*"--"1" ParameterCategory : presented under >
ParameterCategory "*"--"1" Employee : specified by >





@enduml